<svg width="102" height="27" viewBox="0 0 102 27" fill="none" xmlns="http://www.w3.org/2000/svg">
<g clip-path="url(#clip0)">
<path d="M26.9947 6.65895C26.9632 6.36854 26.7827 6.11151 26.513 5.98563L13.8567 0.0793852C13.6306 -0.0261362 13.3693 -0.0261362 13.1431 0.0793852L0.486896 5.98563C0.217213 6.11151 0.0367559 6.36849 0.00516797 6.65895C0.00448242 6.66501 0 6.7458 0 6.75023V21.094C0 21.439 0.210041 21.7493 0.530402 21.8773L13.1867 26.9398C13.2872 26.9801 13.3936 27.0002 13.5 27.0002C13.6064 27.0002 13.7128 26.9801 13.8133 26.9398L26.4696 21.8773C26.79 21.7493 27 21.439 27 21.094V6.75023C27 6.7458 26.9954 6.66496 26.9947 6.65895V6.65895ZM13.5 1.77506L24.0334 6.69064L19.9774 8.31307L9.24576 3.7604L13.5 1.77506ZM7.18822 4.72059L17.7533 9.20264L13.5 10.904L2.96663 6.69064L7.18822 4.72059ZM1.6875 7.99645L12.6562 12.3839V24.9102L1.6875 20.5227V7.99645ZM14.3438 24.9103V12.3839L25.3125 7.99645V20.5227L14.3438 24.9103Z" fill="#0A143A"/>
</g>
<path d="M40.8281 17.7695L44.6953 4.9375H48.6094L42.668 22H39L33.082 4.9375H36.9844L40.8281 17.7695Z" fill="#0A143A"/>
<path d="M56.8125 22C56.6562 21.6953 56.543 21.3164 56.4727 20.8633C55.6523 21.7773 54.5859 22.2344 53.2734 22.2344C52.0312 22.2344 51 21.875 50.1797 21.1562C49.3672 20.4375 48.9609 19.5312 48.9609 18.4375C48.9609 17.0938 49.457 16.0625 50.4492 15.3438C51.4492 14.625 52.8906 14.2617 54.7734 14.2539H56.332V13.5273C56.332 12.9414 56.1797 12.4727 55.875 12.1211C55.5781 11.7695 55.1055 11.5938 54.457 11.5938C53.8867 11.5938 53.4375 11.7305 53.1094 12.0039C52.7891 12.2773 52.6289 12.6523 52.6289 13.1289H49.2422C49.2422 12.3945 49.4688 11.7148 49.9219 11.0898C50.375 10.4648 51.0156 9.97656 51.8438 9.625C52.6719 9.26562 53.6016 9.08594 54.6328 9.08594C56.1953 9.08594 57.4336 9.48047 58.3477 10.2695C59.2695 11.0508 59.7305 12.1523 59.7305 13.5742V19.0703C59.7383 20.2734 59.9062 21.1836 60.2344 21.8008V22H56.8125ZM54.0117 19.6445C54.5117 19.6445 54.9727 19.5352 55.3945 19.3164C55.8164 19.0898 56.1289 18.7891 56.332 18.4141V16.2344H55.0664C53.3711 16.2344 52.4688 16.8203 52.3594 17.9922L52.3477 18.1914C52.3477 18.6133 52.4961 18.9609 52.793 19.2344C53.0898 19.5078 53.4961 19.6445 54.0117 19.6445Z" fill="#0A143A"/>
<path d="M61.8047 15.5664C61.8047 13.5898 62.2461 12.0156 63.1289 10.8438C64.0195 9.67188 65.2344 9.08594 66.7734 9.08594C68.0078 9.08594 69.0273 9.54688 69.832 10.4688V4H73.2305V22H70.1719L70.0078 20.6523C69.1641 21.707 68.0781 22.2344 66.75 22.2344C65.2578 22.2344 64.0586 21.6484 63.1523 20.4766C62.2539 19.2969 61.8047 17.6602 61.8047 15.5664ZM65.1914 15.8125C65.1914 17 65.3984 17.9102 65.8125 18.543C66.2266 19.1758 66.8281 19.4922 67.6172 19.4922C68.6641 19.4922 69.4023 19.0508 69.832 18.168V13.1641C69.4102 12.2812 68.6797 11.8398 67.6406 11.8398C66.0078 11.8398 65.1914 13.1641 65.1914 15.8125Z" fill="#0A143A"/>
<path d="M79.4297 22H76.0312V9.32031H79.4297V22ZM75.832 6.03906C75.832 5.53125 76 5.11328 76.3359 4.78516C76.6797 4.45703 77.1445 4.29297 77.7305 4.29297C78.3086 4.29297 78.7695 4.45703 79.1133 4.78516C79.457 5.11328 79.6289 5.53125 79.6289 6.03906C79.6289 6.55469 79.4531 6.97656 79.1016 7.30469C78.7578 7.63281 78.3008 7.79688 77.7305 7.79688C77.1602 7.79688 76.6992 7.63281 76.3477 7.30469C76.0039 6.97656 75.832 6.55469 75.832 6.03906Z" fill="#0A143A"/>
<path d="M86.2852 6.20312V9.32031H88.4531V11.8047H86.2852V18.1328C86.2852 18.6016 86.375 18.9375 86.5547 19.1406C86.7344 19.3438 87.0781 19.4453 87.5859 19.4453C87.9609 19.4453 88.293 19.418 88.582 19.3633V21.9297C87.918 22.1328 87.2344 22.2344 86.5312 22.2344C84.1562 22.2344 82.9453 21.0352 82.8984 18.6367V11.8047H81.0469V9.32031H82.8984V6.20312H86.2852Z" fill="#0A143A"/>
<path d="M89.4609 15.543C89.4609 14.2852 89.7031 13.1641 90.1875 12.1797C90.6719 11.1953 91.3672 10.4336 92.2734 9.89453C93.1875 9.35547 94.2461 9.08594 95.4492 9.08594C97.1602 9.08594 98.5547 9.60938 99.6328 10.6562C100.719 11.7031 101.324 13.125 101.449 14.9219L101.473 15.7891C101.473 17.7344 100.93 19.2969 99.8438 20.4766C98.7578 21.6484 97.3008 22.2344 95.4727 22.2344C93.6445 22.2344 92.1836 21.6484 91.0898 20.4766C90.0039 19.3047 89.4609 17.7109 89.4609 15.6953V15.543ZM92.8477 15.7891C92.8477 16.9922 93.0742 17.9141 93.5273 18.5547C93.9805 19.1875 94.6289 19.5039 95.4727 19.5039C96.293 19.5039 96.9336 19.1914 97.3945 18.5664C97.8555 17.9336 98.0859 16.9258 98.0859 15.543C98.0859 14.3633 97.8555 13.4492 97.3945 12.8008C96.9336 12.1523 96.2852 11.8281 95.4492 11.8281C94.6211 11.8281 93.9805 12.1523 93.5273 12.8008C93.0742 13.4414 92.8477 14.4375 92.8477 15.7891Z" fill="#0A143A"/>
<defs>
<clipPath id="clip0">
<rect width="27" height="27" fill="white"/>
</clipPath>
</defs>
</svg>
